<?xml version="1.0" encoding="utf-8"?>
<!DOCTYPE svg PUBLIC "-//W3C//DTD SVG 20010904//EN" "http://www.w3.org/TR/2001/REC-SVG-20010904/DTD/svg10.dtd">
<svg version="1.0" xmlns="http://www.w3.org/2000/svg" width="502pt" height="502pt" viewBox="0 0 502 502" style="" preserveAspectRatio="xMidYMid meet">
<g fill="#FFFFFFFF" stroke="#FFFFFFFF">
<path d="M 248.814 66.947 C 241.982 68.277 209.915 95.885 182.967 123.639 C 175.524 131.305 167.911 139.472 166.050 141.788 C 164.188 144.105 162.303 146.000 161.861 146.000 C 161.418 146.000 155.756 140.889 149.278 134.643 C 127.692 113.827 105.239 95.447 78.641 76.818 C 70.931 71.418 63.778 67.000 62.746 67.000 C 59.083 67.000 57.000 68.928 57.000 72.317 C 57.000 75.362 57.880 76.175 71.250 85.481 C 96.539 103.082 121.625 123.562 140.513 142.030 C 156.183 157.350 155.167 154.824 148.839 162.725 C 124.222 193.461 99.103 237.931 83.621 278.183 C 64.505 327.886 52.552 390.902 51.901 445.412 C 51.741 458.828 51.907 460.459 53.553 461.662 C 54.559 462.398 56.411 463.000 57.668 463.000 C 61.931 463.000 62.718 459.843 63.404 440.000 C 66.945 337.543 98.111 247.599 156.394 171.634 L 162.429 163.769 165.781 167.634 C 198.798 205.714 221.835 239.176 239.005 274.000 L 243.196 282.500 236.994 296.500 C 221.886 330.605 210.872 365.390 201.986 407.067 C 198.729 422.341 194.000 451.859 194.000 456.914 C 194.000 460.931 197.596 463.484 201.279 462.084 C 204.431 460.885 204.500 460.662 206.989 443.500 C 212.606 404.780 223.160 363.385 236.438 328.000 C 243.144 310.127 249.149 296.741 250.037 297.687 C 251.261 298.992 256.741 312.346 262.514 328.093 C 275.474 363.441 284.550 400.130 290.571 441.494 C 293.297 460.227 294.457 462.855 299.443 461.604 C 304.042 460.449 304.375 457.851 302.023 441.427 C 294.425 388.346 281.583 341.635 262.190 296.544 L 256.187 282.587 260.713 273.544 C 277.972 239.060 305.988 198.784 333.607 168.750 C 336.515 165.588 339.102 163.000 339.356 163.000 C 340.061 163.000 348.781 174.345 356.651 185.500 C 368.979 202.975 379.104 219.917 389.552 240.552 C 420.145 300.978 436.340 366.063 438.840 438.645 C 439.421 455.509 439.727 458.042 441.405 459.895 C 443.812 462.555 446.427 462.573 449.052 459.948 C 450.985 458.015 451.070 457.102 450.512 444.198 C 447.652 378.041 437.669 326.622 417.663 275.000 C 402.484 235.834 377.594 192.081 353.316 161.889 C 350.392 158.254 348.000 154.814 348.000 154.245 C 348.000 152.991 365.469 136.213 379.372 124.115 C 393.328 111.970 414.932 95.317 431.290 84.096 C 444.004 75.374 445.000 74.463 445.000 71.546 C 445.000 69.815 444.460 67.860 443.800 67.200 C 441.106 64.506 437.342 66.121 423.000 76.127 C 395.939 95.006 373.243 113.431 351.745 133.973 L 339.989 145.205 335.290 139.852 C 327.080 130.503 304.906 108.144 293.005 97.214 C 277.825 83.273 256.202 65.971 254.142 66.115 C 253.239 66.178 250.841 66.553 248.814 66.947 M 268.528 90.913 C 284.370 104.063 308.279 127.015 322.135 142.373 L 331.945 153.247 328.222 157.486 C 305.951 182.853 291.783 200.899 278.116 221.306 C 270.990 231.948 256.331 256.442 252.116 264.750 C 250.930 267.088 249.749 269.000 249.492 269.000 C 249.235 269.000 247.387 265.738 245.384 261.750 C 229.771 230.659 204.054 193.749 175.629 161.635 L 169.757 155.002 173.556 150.251 C 181.482 140.337 222.100 100.984 236.448 89.317 C 249.675 78.562 251.604 77.310 253.212 78.436 C 254.211 79.136 261.103 84.751 268.528 90.913 "/></g>
<g fill="#FFFFFFFF" stroke="#FFFFFFFF">
<path d="M 154.531 68.832 C 147.204 69.679 141.878 78.120 143.910 85.666 C 146.910 96.806 160.709 99.542 167.885 90.419 C 175.628 80.575 167.441 67.340 154.531 68.832 "/></g>
<g fill="#FFFFFFFF" stroke="#FFFFFFFF">
<path d="M 343.240 68.976 C 339.170 69.630 334.498 73.960 333.016 78.452 C 329.400 89.408 341.690 99.831 351.961 94.520 C 360.975 89.859 362.447 77.412 354.669 71.617 C 351.075 68.939 347.957 68.219 343.240 68.976 "/></g>
<g fill="#FF3131FF" stroke="#FF3131FF">
<path d="M 243.888 201.500 C 236.274 205.638 238.767 217.928 247.555 219.576 C 256.920 221.333 262.867 209.713 256.077 202.923 C 252.786 199.632 248.290 199.107 243.888 201.500 "/></g>
<g fill="#FFFFFFBD" stroke="#FFFFFFBD">
<path d="M 312.500 115.500 L 325.000 128.000 312.500 115.500 L 300.000 103.000 312.500 115.500 "/></g>
<g fill="#FFFFFFBD" stroke="#FFFFFFBD">
<path d="M 190.000 115.980 L 178.500 127.532 190.000 115.980 L 201.500 104.427 190.000 115.980 "/></g>
<g fill="#FFFFFFBD" stroke="#FFFFFFBD">
<path d="M 342.234 142.189 C 340.438 143.735 339.368 145.000 339.856 145.000 C 340.344 145.000 341.813 143.735 343.122 142.189 L 345.500 139.379 342.234 142.189 "/></g>
</svg>
